HIERARCHY
ROOT Hips
{
  OFFSET 0.0 0.0 0.0
  CHANNELS 6 XPOSITION YPOSITION ZPOSITION ZROTATION XROTATION YROTATION 
  JOINT LeftUpLeg
  {
    OFFSET 0.089458 -0.0866707 0.00101652
    CHANNELS 3 ZROTATION XROTATION YROTATION 
    JOINT LeftLeg
    {
      OFFSET 0.0 -0.444227 0.013727
      CHANNELS 3 ZROTATION XROTATION YROTATION 
      JOINT LeftFoot
      {
        OFFSET -0.00253549 -0.420924 -0.0146059
        CHANNELS 3 ZROTATION XROTATION YROTATION 
        End Site
        {
          OFFSET -0.0004 -0.0441509 0.084991
        }
      }
    }
  }
  JOINT Spine
  {
    OFFSET 0.0 0.118905 0.0
    CHANNELS 3 ZROTATION XROTATION YROTATION 
    JOINT Spine1
    {
      OFFSET 0.0 0.256574 0.00127663
      CHANNELS 3 ZROTATION XROTATION YROTATION 
      End Site
      {
        OFFSET -0.0029 0.2150836 0.02525291
      }
      JOINT RightArm
      {
        OFFSET -0.162727 -0.05365632 0.00102123
        CHANNELS 3 ZROTATION XROTATION YROTATION 
        JOINT RightForeArm
        {
          OFFSET -0.26364 0.00099144 -0.0142434
          CHANNELS 3 ZROTATION XROTATION YROTATION 
          End Site
          {
            OFFSET -0.220324 0.00085362 0.0102216
          }
        }
      }
      JOINT LeftArm
      {
        OFFSET 0.162727 -0.0536563199 0.00102123
        CHANNELS 3 ZROTATION XROTATION YROTATION 
        JOINT LeftForeArm
        {
          OFFSET 0.262597 0.00099144 -0.0142434
          CHANNELS 3 ZROTATION XROTATION YROTATION 
          End Site
          {
            OFFSET 0.220902 0.00085362 0.0102216
          }
        }
      }
    }
  }
  JOINT RightUpLeg
  {
    OFFSET -0.089458 -0.0866707 0.00101652
    CHANNELS 3 ZROTATION XROTATION YROTATION 
    JOINT RightLeg
    {
      OFFSET 0.0 -0.444227 0.013727
      CHANNELS 3 ZROTATION XROTATION YROTATION 
      JOINT RightFoot
      {
        OFFSET 0.00253549 -0.420924 -0.0146059
        CHANNELS 3 ZROTATION XROTATION YROTATION 
        End Site
        {
          OFFSET 0.0004 -0.0441509 0.084991
        }
      }
    }
  }
}
MOTION
Frames: 6
Frame Time: 0.033333
1.95164349062 0.985218937209 0.0705364219139 -5.23755212633 -1.26011611413 -89.5910654185 -1.97045002484 3.52450994664 1.80100007516 -0.114394996427 7.6379196573 17.1683993562 -1.11396479348 -32.7463994095 0.0164596986878 3.75322011166 6.28270980756 1.01725998701 -5.6167398965 0.287514998843 2.28560007578 77.3848206924 -8.712507343 3.05645650617 6.3034001581 29.0845983917 13.5365999443 -73.653099028 -1.19210599957 4.78752504919 -1.83635996449 28.5740007701 -19.6617991863 -2.92760989668 6.32945989111 -6.52279010311 0.62454401333 9.22169026166 -14.8511996237 4.07286741529 -36.5450125315 0.0105752230798 
1.95201018465 0.981169278782 0.0702761607591 -5.25878675757 -1.27479877969 -89.5638539448 -1.97172022658 3.52516927334 1.78688570268 -0.101485038431 7.62681633103 17.1447890998 -1.11579411024 -32.7480352398 0.0164442023626 3.76481777287 6.27061866518 1.02313683118 -5.62116756663 0.287736979991 2.29330047374 77.3831746168 -8.6855110203 3.09432520936 6.28724377251 29.087678807 13.5585026535 -73.626270045 -1.4739180039 4.81057736452 -1.90463901775 28.8302831281 -19.4950913442 -2.92199206609 6.33118536765 -6.52293054888 0.628086480271 9.22360527595 -14.8846931638 4.07286656151 -36.5511836074 0.0105684796021 
1.95257888472 0.981062767953 0.0698109015985 -5.2848490519 -1.30181036359 -89.4621524281 -1.98187266245 3.50955567434 1.73646577984 -0.0574821783637 7.62097651929 17.0644951035 -1.13360638983 -32.7470721832 0.0162480461999 3.78499756677 6.15694681503 1.07092051445 -5.60820301381 0.414843758876 2.34548482655 77.3466877462 -8.55521320905 3.33566418071 6.20413659201 29.028717199 13.6860197239 -73.5166591692 -2.62866532331 4.93453932154 -2.17969863303 29.893603563 -18.8458477126 -2.91139886957 6.33742090347 -6.53191139386 0.646449230411 9.23185785201 -15.0024029365 4.07130159442 -36.5691572502 0.0105249855044 
1.95323161176 0.981026693511 0.0693338809358 -5.31887235859 -1.35023053511 -89.2981869069 -2.01592094202 3.48008319463 1.66105910402 4.39715379245e-005 7.64207070476 16.9707763703 -1.17887720381 -32.7350886163 0.0155592242901 3.84217777607 5.96685112449 1.17229311489 -5.67050159612 0.666602770775 2.47188729554 77.2740418542 -8.18037498873 3.72809611457 6.03463178738 28.6690667581 14.0138688041 -73.3125526262 -4.22685403013 5.21091481546 -2.58702955735 31.4128903514 -17.9315432224 -2.9249299012 6.34107334713 -6.56909665125 0.680185188909 9.2714729492 -15.1377175216 4.06343791225 -36.6121396307 0.0103365891769 
1.954269101 0.980963771404 0.0690006764097 -5.39611368725 -1.41695870853 -89.1405939522 -2.07399953464 3.47889132662 1.5860575438 0.0458510065374 7.65442054056 16.8918928081 -1.23110830072 -32.7158821243 0.0143207672528 4.00708970537 5.91431330939 1.28296757921 -5.9728279669 0.730339107901 2.65146769641 77.224352228 -7.45059574289 3.95821756743 5.81051193637 27.8587809263 14.5568133478 -73.0255685678 -5.45837470352 5.63393319019 -2.93909571354 32.6512753649 -17.1783406966 -2.98010609031 6.34157152406 -6.64723785734 0.725297147633 9.36688642304 -15.2132559988 4.05138561657 -36.70039592 0.00964672756427 
1.95572156676 0.980826566597 0.0685950726152 -5.5118849668 -1.47808153781 -88.9527159387 -2.11109642645 3.50005082578 1.53227279229 0.0834089561332 7.66223939961 16.7544386661 -1.31476509801 -32.7856081105 0.00714936544405 4.22901663877 6.04967101016 1.36915143977 -6.3819396496 0.507705623449 2.8187223806 77.2014915849 -6.5705301372 4.00048448556 5.58183378786 26.922180991 15.1586640043 -72.6994065444 -6.43233833482 6.18853686683 -3.21533993976 33.5785862429 -16.5972965039 -3.02804334611 6.3650899998 -6.73819719406 0.78859304428 9.46764708122 -15.3061516941 4.05943456762 -36.8867098202 0.012748463042 
